Coordinates
version=1
nRows=9
nColumns=36
inDegrees=yes

Units are S.I. units (second, meters, Newtons, ...)
If the header above contains a line with 'inDegrees', this indicates whether rotational values are in degrees (yes) or radians (no).

endheader
time	pelvis_tilt	pelvis_list	pelvis_rotation	pelvis_tx	pelvis_ty	pelvis_tz	hip_flexion_r	hip_adduction_r	hip_rotation_r	knee_angle_r	knee_angle_r_beta	ankle_angle_r	subtalar_angle_r	mtp_angle_r	hip_flexion_l	hip_adduction_l	hip_rotation_l	knee_angle_l	knee_angle_l_beta	ankle_angle_l	subtalar_angle_l	mtp_angle_l	lumbar_extension	lumbar_bending	lumbar_rotation	arm_flex_r	arm_add_r	arm_rot_r	elbow_flex_r	pro_sup_r	arm_flex_l	arm_add_l	arm_rot_l	elbow_flex_l	pro_sup_l
      1.22083330	    -20.27374173	      1.37044678	      2.36415849	     -0.74140674	      1.08733336	     -0.07308118	     34.79842315	      1.56611253	      5.30008923	     63.17064896	      1.10253581	     38.21309147	    -31.30864804	     -7.49999987	     38.19573882	      3.36342225	      7.39172741	     66.22505027	      1.15584517	     39.57239867	    -13.44459312	     -7.49999987	    -21.81998635	      3.07134748	     -3.84061424	     49.02350027	    -10.82006431	     18.23158177	     87.28012154	     78.68463517	     62.88393352	    -14.60872349	     10.69547193	     80.51615758	     58.41689172
      1.22500000	    -20.20042965	      1.26250936	      2.30220117	     -0.72848695	      1.09453879	     -0.06544393	     33.50640041	      1.65901519	      4.74086172	     62.05130394	      1.08299956	     37.85901637	    -30.64809016	     -7.49999987	     36.59727916	      2.85399023	      7.59286923	     64.80628102	      1.13108298	     39.21818777	    -12.96330525	     -7.49999987	    -20.65362179	      2.84860166	     -3.42228011	     49.14430574	    -11.04287864	     19.10485405	     87.65986823	     78.93017013	     62.16403879	    -14.83846820	     10.94542787	     81.35887210	     58.38415440
      1.22916670	    -20.03341481	      0.96455700	      2.02603498	     -0.72809083	      1.09143217	     -0.06501981	     32.77432151	      2.07968663	      4.32593161	     61.41744815	      1.07193669	     37.88451602	    -30.16295439	     -7.49999987	     35.76425739	      2.18984036	      7.81708270	     64.31833145	      1.12256665	     38.80018822	    -12.94614283	     -7.49999987	    -19.99838631	      3.08293002	     -3.70817633	     50.86665240	    -11.17022341	     21.82098789	     87.90620154	     81.40740617	     61.26075263	    -16.25256915	     10.36348893	     84.70323337	     57.85839065
      1.23333330	    -19.85432939	      0.96831986	      1.89040045	     -0.71566276	      1.09571403	     -0.06626795	     31.48091658	      1.98138586	      4.18468964	     60.39506465	      1.05409273	     37.04862416	    -29.89699189	     -7.49999987	     34.33684353	      1.90147701	      7.77436270	     63.22763221	      1.10353036	     38.40170944	    -12.37116008	     -7.49999987	    -19.14201518	      2.77461494	     -3.32383405	     51.27166823	    -11.98450375	     22.47163459	     88.63627397	     82.02499858	     61.40035456	    -16.96541471	     11.24521597	     85.74476112	     57.88373035
      1.23750000	    -19.92958398	      0.96957408	      1.87529344	     -0.70983773	      1.09640143	     -0.06185107	     30.81508607	      1.97495415	      3.99538368	     59.90979031	      1.04562310	     37.00970785	    -29.95129266	     -7.49999987	     33.58559555	      1.69898472	      7.86920722	     62.59114061	      1.09242149	     38.42579830	    -12.08405751	     -7.49999987	    -17.87686991	      2.42377043	     -3.12450786	     50.80749932	    -12.58513485	     22.54696167	     88.68668330	     82.11222751	     61.12016961	    -17.51480332	     11.39565370	     86.11827308	     57.91176182
      1.24166670	    -19.67740777	      0.92407437	      1.52916744	     -0.70331602	      1.10411649	     -0.05799086	     29.84051664	      2.42021160	      4.15788780	     58.85824912	      1.02727024	     36.19288541	    -29.95603893	     -7.49999987	     32.36309841	      0.95633937	      7.26249480	     61.41996015	      1.07198053	     38.30106355	    -10.83288432	     -7.49999987	    -17.47101877	      1.89041683	     -2.81387773	     49.91060354	    -12.99023647	     22.68421430	     89.91764780	     82.94299531	     60.96216711	    -19.28238137	     13.21908824	     88.20198991	     58.23378173
      1.24583330	    -19.69431101	      1.06555672	      1.22837974	     -0.69685225	      1.10442755	     -0.05322284	     28.93917778	      2.74668759	      4.19592001	     57.94448905	      1.01132212	     35.57620881	    -30.28392398	     -7.49999987	     31.77087841	      0.27990054	      6.43660087	     61.19366419	      1.06803092	     38.19765893	     -9.54723704	     -7.49999987	    -16.45801802	      1.29401281	     -2.56375440	     48.89099848	    -13.46525793	     22.39294979	     91.05237086	     82.37764392	     60.61877715	    -20.44542204	     13.92343045	     89.72057749	     58.59422047
      1.25000000	    -19.84345408	      1.23143365	      0.73876284	     -0.69050807	      1.10396121	     -0.05813528	     28.55212962	      2.65248187	      4.25419560	     57.56993597	      1.00478493	     35.16006657	    -30.50289913	     -7.49999987	     31.29187780	     -0.25774066	      5.25956913	     61.52056139	      1.07373635	     38.39991607	     -8.16337328	     -7.49999987	    -15.33763985	      0.84294793	     -2.30264076	     48.39552012	    -14.07571825	     21.53535706	     92.51040708	     83.21866449	     60.08977107	    -21.42350464	     14.16439487	     92.05084390	     58.97726839
      1.25416670	    -20.54707005	      1.16883285	      0.15130846	     -0.68962082	      1.11110903	     -0.05745689	     28.94682529	      2.71792014	      4.55039457	     56.79726464	      0.99129927	     33.81436517	    -31.34721496	     -7.49999987	     31.57746135	     -0.80896179	      4.32840825	     60.81273340	      1.06138242	     38.37984262	     -7.07430827	     -7.49999987	    -13.93401428	      0.67351257	     -2.11134012	     47.76935895	    -14.42833511	     20.22644561	     93.21054703	     89.22162748	     59.60263871	    -22.39464188	     14.08345033	     93.13387460	     61.58886523
